<svg width="28" height="28" viewBox="0 0 28 28" fill="none" xmlns="http://www.w3.org/2000/svg">
<path fill-rule="evenodd" clip-rule="evenodd" d="M3.58884 6.55355C3.76942 6.11759 4.19483 5.83334 4.6667 5.83334H16.3333C20.8437 5.83334 24.5 9.48969 24.5 14C24.5 18.5103 20.8437 22.1667 16.3333 22.1667H5.83337C5.18903 22.1667 4.6667 21.6444 4.6667 21C4.6667 20.3557 5.18903 19.8333 5.83337 19.8333H16.3333C19.5551 19.8333 22.1667 17.2216 22.1667 14C22.1667 10.7784 19.5551 8.16668 16.3333 8.16668H7.48328L9.575 10.2584C10.0306 10.714 10.0306 11.4527 9.575 11.9083C9.11938 12.3639 8.38069 12.3639 7.92507 11.9083L3.84174 7.82497C3.50807 7.49131 3.40827 6.9895 3.58884 6.55355Z" fill="white"/>
</svg>
