<svg width="22" height="18" viewBox="0 0 22 18" fill="none" xmlns="http://www.w3.org/2000/svg">
    <path fill-rule="evenodd" clip-rule="evenodd"
        d="M0.588842 1.55355C0.769419 1.11759 1.19483 0.833344 1.6667 0.833344H13.3333C17.8437 0.833344 21.5 4.48969 21.5 9.00001C21.5 13.5103 17.8437 17.1667 13.3333 17.1667H2.83337C2.18903 17.1667 1.6667 16.6444 1.6667 16C1.6667 15.3557 2.18903 14.8333 2.83337 14.8333H13.3333C16.5551 14.8333 19.1667 12.2216 19.1667 9.00001C19.1667 5.77835 16.5551 3.16668 13.3333 3.16668H4.48328L6.575 5.25838C7.0306 5.714 7.0306 6.45269 6.575 6.90829C6.11938 7.36388 5.38069 7.36388 4.92507 6.90829L0.841741 2.82497C0.508074 2.49131 0.408265 1.9895 0.588842 1.55355Z"
        fill="white" />
</svg>
